<mxfile host="app.diagrams.net" modified="2022-05-18T10:44:02.051Z" agent="5.0 (Windows NT 10.0; Win64; x64) AppleWebKit/537.36 (KHTML, like Gecko) Chrome/101.0.4951.64 Safari/537.36 Edg/101.0.1210.47" etag="TfiCJ8P0VVZB-0_91C2w" version="18.0.7" type="github">
  <diagram id="Ov7MRsxzf6kEL0CbX7Q0" name="Page-1">
    <mxGraphModel dx="1410" dy="869" grid="1" gridSize="10" guides="1" tooltips="1" connect="1" arrows="1" fold="1" page="1" pageScale="1" pageWidth="827" pageHeight="1169" math="0" shadow="0">
      <root>
        <mxCell id="0" />
        <mxCell id="1" parent="0" />
        <mxCell id="1JUG7xllrolN8tUQO0sr-1" value="тест" style="rounded=1;whiteSpace=wrap;html=1;" parent="1" vertex="1">
          <mxGeometry x="330" y="280" width="120" height="60" as="geometry" />
        </mxCell>
      </root>
    </mxGraphModel>
  </diagram>
</mxfile>
